<svg width="21" height="27" viewBox="0 0 21 27" fill="none" xmlns="http://www.w3.org/2000/svg">
    <path d="M20.3 13.35C20.3433 20.6517 14.4067 26.6967 7.10499 26.7617C7.06165 26.7617 6.99665 26.7617 6.95332 26.7617C3.55165 26.7617 0.799988 23.9884 0.799988 20.5867V13.5234C0.799988 13.5017 0.799988 13.4584 0.799988 13.4367C0.799988 9.88338 3.81165 7.02338 7.40832 7.28338C10.4633 7.50005 12.9333 9.99171 13.1283 13.0467C13.2583 15.1484 12.3267 17.055 10.8317 18.2467C9.68332 19.1784 7.94999 18.3117 7.94999 16.8384C7.94999 16.2967 8.18832 15.7984 8.59999 15.4517C9.20665 14.9534 9.57499 14.195 9.55332 13.3717C9.50999 12.0284 8.42665 10.9234 7.08332 10.8584C5.58832 10.7934 4.35332 11.985 4.35332 13.4584C4.35332 13.48 4.35332 13.5234 4.35332 13.545V20.4134C4.35332 21.9734 5.63165 23.2517 7.19165 23.2084C7.21332 23.2084 7.25665 23.2084 7.27832 23.2084C12.24 23.035 16.335 19.0917 16.6817 14.13C16.985 9.51505 14.0817 5.52838 9.96499 4.18505C9.22832 3.94671 8.72999 3.27505 8.72999 2.51671V2.45171C8.72999 1.26005 9.87832 0.39338 11.0267 0.761714C16.3783 2.45171 20.2567 7.43505 20.3 13.35Z" fill="white"/>
</svg>
