<svg width="13" height="27" viewBox="0 0 13 27" fill="none" xmlns="http://www.w3.org/2000/svg">
    <path d="M7.79999 5.89668C6.39166 7.06668 5.28666 8.60501 4.70166 10.3817C4.37666 11.335 4.20333 12.375 4.20333 13.4367V24.985C4.20333 25.9817 3.40166 26.7833 2.40499 26.7833C1.40833 26.7833 0.606659 25.9817 0.606659 24.985V13.4367C0.606659 9.92668 1.97166 6.72001 4.18166 4.35834C5.69833 2.73334 7.62666 1.47668 9.79333 0.783342C10.9633 0.393342 12.155 1.26001 12.155 2.47334C12.155 3.25334 11.6567 3.92501 10.92 4.18501C9.77166 4.53167 8.70999 5.13834 7.79999 5.89668Z" fill="white"/>
</svg>
